<svg xmlns="http://www.w3.org/2000/svg" xmlns:xlink="http://www.w3.org/1999/xlink" width="512" zoomAndPan="magnify" viewBox="0 0 384 383.999986" height="512" preserveAspectRatio="xMidYMid meet" version="1.0"><defs><clipPath id="2fd7a4ff33"><path d="M 52 114 L 337.15625 114 L 337.15625 373 L 52 373 Z M 52 114 " clip-rule="nonzero"/></clipPath><clipPath id="7847a40aea"><path d="M 117.101562 252.476562 L 121.363281 252.476562 L 121.363281 256.121094 L 117.101562 256.121094 Z M 117.101562 252.476562 " clip-rule="nonzero"/></clipPath><clipPath id="d9b2b9b793"><path d="M 121.351562 253.726562 C 119.476562 256.800781 117.675781 256.199219 117.300781 255.601562 C 116.925781 254.925781 117.226562 253.125 117.824219 252.675781 C 118.425781 252.226562 120.824219 252.824219 120.824219 252.824219 " clip-rule="nonzero"/></clipPath></defs><g clip-path="url(#2fd7a4ff33)"><path fill="#455a64" d="M 114.253906 119.167969 C 87.277344 128.128906 66.136719 150.316406 57.695312 178.597656 C 51.082031 200.785156 46.90625 237.675781 64.917969 287.097656 C 65.089844 287.621094 82.839844 336.433594 126.347656 362.796875 C 147.75 375.847656 174.550781 375.238281 194.5625 361.40625 L 195.347656 360.882812 C 196.128906 360.273438 196.910156 359.753906 197.609375 359.230469 C 198.738281 358.273438 200.042969 357.835938 201.347656 357.835938 C 202.65625 357.835938 203.871094 358.273438 205.003906 359.054688 C 206.046875 359.925781 207.09375 360.710938 207.960938 361.230469 L 208.136719 361.316406 C 228.148438 375.238281 254.949219 375.761719 276.351562 362.710938 C 315.332031 339.042969 333.519531 297.714844 337.085938 288.75 C 336.300781 288.75 335.519531 288.75 334.738281 288.75 L 334.5625 288.75 C 313.855469 288.75 294.277344 280.660156 279.660156 266.042969 C 264.953125 251.335938 256.773438 231.847656 256.773438 211.050781 C 256.6875 174.417969 282.355469 143.097656 317.074219 135.089844 C 308.71875 127.957031 299.0625 122.476562 288.621094 118.996094 C 242.417969 103.679688 209.355469 136.046875 205.785156 139.789062 L 205.613281 139.964844 C 203.351562 142.226562 199.609375 142.226562 197.347656 139.964844 L 197.171875 139.789062 C 193.429688 136.222656 160.453125 103.855469 114.253906 119.167969 Z M 114.253906 119.167969 " fill-opacity="1" fill-rule="evenodd"/></g><path fill="#455a64" d="M 219.621094 26.761719 C 207.179688 39.207031 201.175781 57.652344 202.308594 79.054688 C 223.796875 80.1875 242.246094 74.097656 254.6875 61.566406 C 267.128906 49.125 273.21875 30.679688 272.003906 9.273438 C 250.511719 8.144531 232.0625 14.234375 219.621094 26.761719 Z M 219.621094 26.761719 " fill-opacity="1" fill-rule="evenodd"/><g clip-path="url(#7847a40aea)"><g clip-path="url(#d9b2b9b793)"><path fill="#455a64" d="M 114.300781 249.675781 L 124.433594 249.675781 L 124.433594 259.5 L 114.300781 259.5 Z M 114.300781 249.675781 " fill-opacity="1" fill-rule="nonzero"/></g></g></svg>