<svg xmlns="http://www.w3.org/2000/svg" xmlns:xlink="http://www.w3.org/1999/xlink" width="512" zoomAndPan="magnify"
    viewBox="0 0 384 383.999986" height="512" preserveAspectRatio="xMidYMid meet" version="1.0">
    <defs>
        <clipPath id="c3f9302283">
            <path
                d="M 137.472656 293.953125 L 141.769531 293.953125 L 141.769531 297.597656 L 137.472656 297.597656 Z M 137.472656 293.953125 "
                clip-rule="nonzero" />
        </clipPath>
        <clipPath id="e72c950921">
            <path
                d="M 141.757812 295.273438 C 139.808594 298.273438 138.082031 297.75 137.632812 297.074219 C 137.257812 296.476562 137.632812 294.601562 138.234375 294.148438 C 138.757812 293.699219 141.15625 294.300781 141.15625 294.300781 "
                clip-rule="nonzero" />
        </clipPath>
        <clipPath id="23de86101a">
            <path d="M 17.085938 19.238281 L 181.855469 19.238281 L 181.855469 184.007812 L 17.085938 184.007812 Z M 17.085938 19.238281 "
                clip-rule="nonzero" />
        </clipPath>
        <clipPath id="4049d71a68">
            <path
                d="M 17.085938 199.992188 L 181.855469 199.992188 L 181.855469 364.761719 L 17.085938 364.761719 Z M 17.085938 199.992188 "
                clip-rule="nonzero" />
        </clipPath>
        <clipPath id="ee99590fda">
            <path
                d="M 202.144531 19.238281 L 366.914062 19.238281 L 366.914062 184.007812 L 202.144531 184.007812 Z M 202.144531 19.238281 "
                clip-rule="nonzero" />
        </clipPath>
        <clipPath id="3baa862c23">
            <path
                d="M 202.144531 199.992188 L 366.914062 199.992188 L 366.914062 364.761719 L 202.144531 364.761719 Z M 202.144531 199.992188 "
                clip-rule="nonzero" />
        </clipPath>
    </defs>
    <g clip-path="url(#c3f9302283)">
        <g clip-path="url(#e72c950921)">
            <path fill="#006aff"
                d="M 134.632812 291.148438 L 144.765625 291.148438 L 144.765625 300.976562 L 134.632812 300.976562 Z M 134.632812 291.148438 "
                fill-opacity="1" fill-rule="nonzero" />
        </g>
    </g>
    <g clip-path="url(#23de86101a)">
        <path fill="#f35220"
            d="M 17.085938 19.238281 L 181.855469 19.238281 L 181.855469 184.007812 L 17.085938 184.007812 Z M 17.085938 19.238281 "
            fill-opacity="1" fill-rule="nonzero" />
    </g>
    <g clip-path="url(#4049d71a68)">
        <path fill="#00a7f0"
            d="M 17.085938 199.992188 L 181.855469 199.992188 L 181.855469 364.761719 L 17.085938 364.761719 Z M 17.085938 199.992188 "
            fill-opacity="1" fill-rule="nonzero" />
    </g>
    <g clip-path="url(#ee99590fda)">
        <path fill="#82bd01"
            d="M 202.144531 19.238281 L 366.914062 19.238281 L 366.914062 184.007812 L 202.144531 184.007812 Z M 202.144531 19.238281 "
            fill-opacity="1" fill-rule="nonzero" />
    </g>
    <g clip-path="url(#3baa862c23)">
        <path fill="#ffbb02"
            d="M 202.144531 199.992188 L 366.914062 199.992188 L 366.914062 364.761719 L 202.144531 364.761719 Z M 202.144531 199.992188 "
            fill-opacity="1" fill-rule="nonzero" />
    </g>
</svg>